<?xml version="1.0" standalone="no"?>
<!DOCTYPE svg PUBLIC "-//W3C//DTD SVG 20001102//EN" "http://www.w3.org/TR/2000/CR-SVG-20001102/DTD/svg-20001102.dtd">
<svg xmlns="http://www.w3.org/2000/svg" width="2396" x="0" y="0" height="1398" id="/home/jb/devel/cc/jam/jam" >
 <rect width="2396" x="8" y="75" height="1398" transform="translate(-8,-75)" style="stroke:rgb(0,0,0);stroke-width:0;fill:rgb(255,255,255);" />
 <line transform="translate(-8,-75)" style="stroke:rgb(255,0,0);stroke-width:0.9;fill:none;" y1="963" y2="475" x1="711" x2="282" />
 <line transform="translate(-8,-75)" style="stroke:rgb(255,0,0);stroke-width:0.9;fill:none;" y1="211" y2="331" x1="559" x2="282" />
 <line transform="translate(-8,-75)" style="stroke:rgb(255,0,0);stroke-width:0.9;fill:none;" y1="725" y2="637" x1="1517" x2="1811" />
 <line transform="translate(-8,-75)" style="stroke:rgb(255,0,0);stroke-width:0.9;fill:none;" y1="403" y2="403" x1="1096" x2="1238" />
 <line transform="translate(-8,-75)" style="stroke:rgb(255,0,0);stroke-width:0.9;fill:none;" y1="810" y2="1007" x1="1517" x2="1622" />
 <line transform="translate(-8,-75)" style="stroke:rgb(255,0,0);stroke-width:0.9;fill:none;" y1="143" y2="142" x1="479" x2="355" />
 <line transform="translate(-8,-75)" style="stroke:rgb(255,0,0);stroke-width:0.9;fill:none;" y1="403" y2="403" x1="652" x2="489" />
 <line transform="translate(-8,-75)" style="stroke:rgb(255,0,0);stroke-width:0.9;fill:none;" y1="211" y2="259" x1="639" x2="874" />
 <line transform="translate(-8,-75)" style="stroke:rgb(255,0,0);stroke-width:0.9;fill:none;" y1="640" y2="548" x1="1212" x2="874" />
 <line transform="translate(-8,-75)" style="stroke:rgb(255,0,0);stroke-width:0.9;fill:none;" y1="640" y2="497" x1="1364" x2="1391" />
 <polygon points="559 211 548 211 539 220 551 219" transform="translate(-8,-75)" style="stroke:rgb(0,0,0);stroke-width:0;fill:rgb(255,255,255);" />
 <polygon points="282 475 285 488 294 479 282 475" transform="translate(-8,-75)" style="stroke:rgb(0,0,0);stroke-width:0;fill:rgb(255,255,255);" />
 <polygon points="1517 810 1518 821 1527 829 1525 817" transform="translate(-8,-75)" style="stroke:rgb(0,0,0);stroke-width:0;fill:rgb(255,255,255);" />
 <polygon points="1096 403 1106 407 1118 403 1106 399" transform="translate(-8,-75)" style="stroke:rgb(0,0,0);stroke-width:0;fill:rgb(255,255,255);" />
 <polygon points="1364 640 1370 631 1368 618 1362 629" transform="translate(-8,-75)" style="stroke:rgb(0,0,0);stroke-width:0;fill:rgb(255,255,255);" />
 <polygon points="1212 640 1203 633 1191 634 1201 641" transform="translate(-8,-75)" style="stroke:rgb(0,0,0);stroke-width:0;fill:rgb(255,255,255);" />
 <polygon points="479 143 469 139 457 143 469 147" transform="translate(-8,-75)" style="stroke:rgb(0,0,0);stroke-width:0;fill:rgb(255,255,255);" />
 <polygon points="639 211 648 217 661 215 650 209" transform="translate(-8,-75)" style="stroke:rgb(0,0,0);stroke-width:0;fill:rgb(255,255,255);" />
 <polygon points="652 403 642 399 630 403 642 407" transform="translate(-8,-75)" style="stroke:rgb(0,0,0);stroke-width:0;fill:rgb(255,255,255);" />
 <polygon points="1517 725 1528 726 1538 719 1526 718" transform="translate(-8,-75)" style="stroke:rgb(0,0,0);stroke-width:0;fill:rgb(255,255,255);" />
 <line transform="translate(-8,-75)" style="stroke:rgb(255,0,0);stroke-width:0.9;fill:none;" y1="488" y2="479" x1="285" x2="294" />
 <line transform="translate(-8,-75)" style="stroke:rgb(255,0,0);stroke-width:0.9;fill:none;" y1="219" y2="211" x1="551" x2="559" />
 <line transform="translate(-8,-75)" style="stroke:rgb(255,0,0);stroke-width:0.9;fill:none;" y1="220" y2="219" x1="539" x2="551" />
 <line transform="translate(-8,-75)" style="stroke:rgb(255,0,0);stroke-width:0.9;fill:none;" y1="475" y2="488" x1="282" x2="285" />
 <line transform="translate(-8,-75)" style="stroke:rgb(255,0,0);stroke-width:0.9;fill:none;" y1="211" y2="220" x1="548" x2="539" />
 <line transform="translate(-8,-75)" style="stroke:rgb(255,0,0);stroke-width:0.9;fill:none;" y1="719" y2="718" x1="1538" x2="1526" />
 <line transform="translate(-8,-75)" style="stroke:rgb(255,0,0);stroke-width:0.9;fill:none;" y1="725" y2="726" x1="1517" x2="1528" />
 <line transform="translate(-8,-75)" style="stroke:rgb(255,0,0);stroke-width:0.9;fill:none;" y1="211" y2="211" x1="559" x2="548" />
 <line transform="translate(-8,-75)" style="stroke:rgb(255,0,0);stroke-width:0.9;fill:none;" y1="407" y2="403" x1="1106" x2="1118" />
 <line transform="translate(-8,-75)" style="stroke:rgb(255,0,0);stroke-width:0.9;fill:none;" y1="403" y2="407" x1="1096" x2="1106" />
 <line transform="translate(-8,-75)" style="stroke:rgb(255,0,0);stroke-width:0.9;fill:none;" y1="403" y2="399" x1="652" x2="642" />
 <line transform="translate(-8,-75)" style="stroke:rgb(255,0,0);stroke-width:0.9;fill:none;" y1="629" y2="640" x1="1362" x2="1364" />
 <line transform="translate(-8,-75)" style="stroke:rgb(255,0,0);stroke-width:0.9;fill:none;" y1="475" y2="479" x1="282" x2="294" />
 <line transform="translate(-8,-75)" style="stroke:rgb(255,0,0);stroke-width:0.9;fill:none;" y1="403" y2="407" x1="630" x2="642" />
 <line transform="translate(-8,-75)" style="stroke:rgb(255,0,0);stroke-width:0.9;fill:none;" y1="399" y2="403" x1="642" x2="630" />
 <line transform="translate(-8,-75)" style="stroke:rgb(255,0,0);stroke-width:0.9;fill:none;" y1="817" y2="810" x1="1525" x2="1517" />
 <line transform="translate(-8,-75)" style="stroke:rgb(255,0,0);stroke-width:0.9;fill:none;" y1="139" y2="143" x1="469" x2="457" />
 <line transform="translate(-8,-75)" style="stroke:rgb(255,0,0);stroke-width:0.9;fill:none;" y1="726" y2="719" x1="1528" x2="1538" />
 <line transform="translate(-8,-75)" style="stroke:rgb(255,0,0);stroke-width:0.9;fill:none;" y1="143" y2="139" x1="479" x2="469" />
 <line transform="translate(-8,-75)" style="stroke:rgb(255,0,0);stroke-width:0.9;fill:none;" y1="143" y2="147" x1="457" x2="469" />
 <line transform="translate(-8,-75)" style="stroke:rgb(255,0,0);stroke-width:0.9;fill:none;" y1="211" y2="217" x1="639" x2="648" />
 <line transform="translate(-8,-75)" style="stroke:rgb(255,0,0);stroke-width:0.9;fill:none;" y1="215" y2="209" x1="661" x2="650" />
 <line transform="translate(-8,-75)" style="stroke:rgb(255,0,0);stroke-width:0.9;fill:none;" y1="640" y2="633" x1="1212" x2="1203" />
 <line transform="translate(-8,-75)" style="stroke:rgb(255,0,0);stroke-width:0.9;fill:none;" y1="634" y2="641" x1="1191" x2="1201" />
 <line transform="translate(-8,-75)" style="stroke:rgb(255,0,0);stroke-width:0.9;fill:none;" y1="633" y2="634" x1="1203" x2="1191" />
 <line transform="translate(-8,-75)" style="stroke:rgb(255,0,0);stroke-width:0.9;fill:none;" y1="641" y2="640" x1="1201" x2="1212" />
 <line transform="translate(-8,-75)" style="stroke:rgb(255,0,0);stroke-width:0.9;fill:none;" y1="618" y2="629" x1="1368" x2="1362" />
 <line transform="translate(-8,-75)" style="stroke:rgb(255,0,0);stroke-width:0.9;fill:none;" y1="631" y2="618" x1="1370" x2="1368" />
 <line transform="translate(-8,-75)" style="stroke:rgb(255,0,0);stroke-width:0.9;fill:none;" y1="640" y2="631" x1="1364" x2="1370" />
 <line transform="translate(-8,-75)" style="stroke:rgb(255,0,0);stroke-width:0.9;fill:none;" y1="399" y2="403" x1="1106" x2="1096" />
 <line transform="translate(-8,-75)" style="stroke:rgb(255,0,0);stroke-width:0.9;fill:none;" y1="147" y2="143" x1="469" x2="479" />
 <line transform="translate(-8,-75)" style="stroke:rgb(255,0,0);stroke-width:0.9;fill:none;" y1="217" y2="215" x1="648" x2="661" />
 <line transform="translate(-8,-75)" style="stroke:rgb(255,0,0);stroke-width:0.9;fill:none;" y1="209" y2="211" x1="650" x2="639" />
 <line transform="translate(-8,-75)" style="stroke:rgb(255,0,0);stroke-width:0.9;fill:none;" y1="810" y2="821" x1="1517" x2="1518" />
 <line transform="translate(-8,-75)" style="stroke:rgb(255,0,0);stroke-width:0.9;fill:none;" y1="829" y2="817" x1="1527" x2="1525" />
 <line transform="translate(-8,-75)" style="stroke:rgb(255,0,0);stroke-width:0.9;fill:none;" y1="821" y2="829" x1="1518" x2="1527" />
 <line transform="translate(-8,-75)" style="stroke:rgb(255,0,0);stroke-width:0.9;fill:none;" y1="718" y2="725" x1="1526" x2="1517" />
 <line transform="translate(-8,-75)" style="stroke:rgb(255,0,0);stroke-width:0.9;fill:none;" y1="407" y2="403" x1="642" x2="652" />
 <line transform="translate(-8,-75)" style="stroke:rgb(255,0,0);stroke-width:0.9;fill:none;" y1="403" y2="399" x1="1118" x2="1106" />
 <rect width="240" x="479" y="75" height="136" transform="translate(-8,-75)" style="stroke:rgb(255,0,0);stroke-width:0.9;fill:rgb(255,255,192);" />
 <text x="599" y="90" transform="translate(-8,-75)" style="fill:rgb(0,0,0);stroke-width:0;font-size:12;font-style:normal;font-weight:700;font-family:Arial;" text-anchor="middle" >JAM</text>
 <line transform="translate(-8,-75)" style="stroke:rgb(255,0,0);stroke-width:0.9;fill:rgb(255,255,192);" y1="92" y2="92" x1="479" x2="718" />
 <text x="484" y="107" transform="translate(-8,-75)" style="fill:rgb(0,0,0);stroke-width:0;font-size:12;font-style:normal;font-weight:400;font-family:Arial;" >- streamplayer : JAMStreamPlayer*</text>
 <text x="484" y="124" transform="translate(-8,-75)" style="fill:rgb(0,0,0);stroke-width:0;font-size:12;font-style:normal;font-weight:400;font-family:Arial;" >- tv : JAMTV*</text>
 <text x="484" y="141" transform="translate(-8,-75)" style="fill:rgb(0,0,0);stroke-width:0;font-size:12;font-style:normal;font-weight:400;font-family:Arial;" >- m_screen : QWidgetStack*</text>
 <text x="484" y="158" transform="translate(-8,-75)" style="fill:rgb(0,0,0);stroke-width:0;font-size:12;font-style:normal;font-weight:400;font-family:Arial;" >- m_menu : Menu*</text>
 <line transform="translate(-8,-75)" style="stroke:rgb(255,0,0);stroke-width:0.9;fill:rgb(255,255,192);" y1="160" y2="160" x1="479" x2="718" />
 <text x="484" y="175" transform="translate(-8,-75)" style="fill:rgb(0,0,0);stroke-width:0;font-size:12;font-style:normal;font-weight:400;font-family:Arial;" >+ JAM()</text>
 <text x="484" y="192" transform="translate(-8,-75)" style="fill:rgb(0,0,0);stroke-width:0;font-size:12;font-style:normal;font-weight:400;font-family:Arial;" >+ ~ JAM()</text>
 <text x="484" y="209" transform="translate(-8,-75)" style="fill:rgb(0,0,0);stroke-width:0;font-size:12;font-style:normal;font-weight:400;font-family:Arial;" ># keyPressEvent(k : QKeyEvent*)</text>
 <rect width="1407" x="8" y="963" height="510" transform="translate(-8,-75)" style="stroke:rgb(255,0,0);stroke-width:0.9;fill:rgb(255,255,192);" />
 <text x="711" y="978" transform="translate(-8,-75)" style="fill:rgb(0,0,0);stroke-width:0;font-size:12;font-style:normal;font-weight:700;font-family:Arial;" text-anchor="middle" >JAMStreamPlayerXine</text>
 <line transform="translate(-8,-75)" style="stroke:rgb(255,0,0);stroke-width:0.9;fill:rgb(255,255,192);" y1="980" y2="980" x1="8" x2="1414" />
 <text x="13" y="995" transform="translate(-8,-75)" style="fill:rgb(0,0,0);stroke-width:0;font-size:12;font-style:normal;font-weight:400;font-family:Arial;" >- xineEngine : xine_t*</text>
 <text x="13" y="1012" transform="translate(-8,-75)" style="fill:rgb(0,0,0);stroke-width:0;font-size:12;font-style:normal;font-weight:400;font-family:Arial;" >- audioDriver : xine_audio_port_t*</text>
 <text x="13" y="1029" transform="translate(-8,-75)" style="fill:rgb(0,0,0);stroke-width:0;font-size:12;font-style:normal;font-weight:400;font-family:Arial;" >- videoDriver : xine_video_port_t*</text>
 <text x="13" y="1046" transform="translate(-8,-75)" style="fill:rgb(0,0,0);stroke-width:0;font-size:12;font-style:normal;font-weight:400;font-family:Arial;" >- xineStream : xine_stream_t*</text>
 <text x="13" y="1063" transform="translate(-8,-75)" style="fill:rgb(0,0,0);stroke-width:0;font-size:12;font-style:normal;font-weight:400;font-family:Arial;" >- xineWindow : Window</text>
 <text x="13" y="1080" transform="translate(-8,-75)" style="fill:rgb(0,0,0);stroke-width:0;font-size:12;font-style:normal;font-weight:400;font-family:Arial;" >- xineDisplay : Display*</text>
 <text x="13" y="1097" transform="translate(-8,-75)" style="fill:rgb(0,0,0);stroke-width:0;font-size:12;font-style:normal;font-weight:400;font-family:Arial;" >- xineScreen : int</text>
 <text x="13" y="1114" transform="translate(-8,-75)" style="fill:rgb(0,0,0);stroke-width:0;font-size:12;font-style:normal;font-weight:400;font-family:Arial;" >- videoFrameWidth : int</text>
 <text x="13" y="1131" transform="translate(-8,-75)" style="fill:rgb(0,0,0);stroke-width:0;font-size:12;font-style:normal;font-weight:400;font-family:Arial;" >- videoFrameHeight : int</text>
 <text x="13" y="1148" transform="translate(-8,-75)" style="fill:rgb(0,0,0);stroke-width:0;font-size:12;font-style:normal;font-weight:400;font-family:Arial;" >- globX : int</text>
 <text x="13" y="1165" transform="translate(-8,-75)" style="fill:rgb(0,0,0);stroke-width:0;font-size:12;font-style:normal;font-weight:400;font-family:Arial;" >- globY : int</text>
 <text x="13" y="1182" transform="translate(-8,-75)" style="fill:rgb(0,0,0);stroke-width:0;font-size:12;font-style:normal;font-weight:400;font-family:Arial;" >- res_v : double</text>
 <text x="13" y="1199" transform="translate(-8,-75)" style="fill:rgb(0,0,0);stroke-width:0;font-size:12;font-style:normal;font-weight:400;font-family:Arial;" >- res_h : double</text>
 <text x="13" y="1216" transform="translate(-8,-75)" style="fill:rgb(0,0,0);stroke-width:0;font-size:12;font-style:normal;font-weight:400;font-family:Arial;" >- pixel_aspect : double</text>
 <text x="13" y="1233" transform="translate(-8,-75)" style="fill:rgb(0,0,0);stroke-width:0;font-size:12;font-style:normal;font-weight:400;font-family:Arial;" >- m_OSD : xine_osd_t*</text>
 <text x="13" y="1250" transform="translate(-8,-75)" style="fill:rgb(0,0,0);stroke-width:0;font-size:12;font-style:normal;font-weight:400;font-family:Arial;" >- visual : x11_visual_t</text>
 <text x="13" y="1267" transform="translate(-8,-75)" style="fill:rgb(0,0,0);stroke-width:0;font-size:12;font-style:normal;font-weight:400;font-family:Arial;" >- eventQueue : xine_event_queue_t*</text>
 <text x="13" y="1284" transform="translate(-8,-75)" style="fill:rgb(0,0,0);stroke-width:0;font-size:12;font-style:normal;font-weight:400;font-family:Arial;" >- m_marginOSD : uint</text>
 <text x="13" y="1301" transform="translate(-8,-75)" style="fill:rgb(0,0,0);stroke-width:0;font-size:12;font-style:normal;font-weight:400;font-family:Arial;" >- m_OSDTimer : QTimer</text>
 <line transform="translate(-8,-75)" style="stroke:rgb(255,0,0);stroke-width:0.9;fill:rgb(255,255,192);" y1="1303" y2="1303" x1="8" x2="1414" />
 <text x="13" y="1318" transform="translate(-8,-75)" style="fill:rgb(0,0,0);stroke-width:0;font-size:12;font-style:normal;font-weight:400;font-family:Arial;" >+ JAMStreamPlayerXine(parent : QWidget*, name : const char*)</text>
 <text x="13" y="1335" transform="translate(-8,-75)" style="fill:rgb(0,0,0);stroke-width:0;font-size:12;font-style:normal;font-weight:400;font-family:Arial;" >+ ~ JAMStreamPlayerXine()</text>
 <text x="13" y="1352" transform="translate(-8,-75)" style="fill:rgb(0,0,0);stroke-width:0;font-size:12;font-style:normal;font-weight:400;font-family:Arial;" >+ tvMRL(channelid : QString) : QString</text>
 <text x="13" y="1369" transform="translate(-8,-75)" style="fill:rgb(0,0,0);stroke-width:0;font-size:12;font-style:normal;font-weight:400;font-family:Arial;" >+ play(mrl : QString)</text>
 <text x="13" y="1386" transform="translate(-8,-75)" style="fill:rgb(0,0,0);stroke-width:0;font-size:12;font-style:normal;font-weight:400;font-family:Arial;" >+ stop()</text>
 <text x="13" y="1403" transform="translate(-8,-75)" style="fill:rgb(0,0,0);stroke-width:0;font-size:12;font-style:normal;font-weight:400;font-family:Arial;" >+ showOSD(text : QString, duration : uint)</text>
 <text x="13" y="1420" transform="translate(-8,-75)" style="fill:rgb(0,0,0);stroke-width:0;font-size:12;font-style:normal;font-weight:400;font-family:Arial;" >+ hideOSD()</text>
 <text x="13" y="1437" transform="translate(-8,-75)" style="fill:rgb(0,0,0);stroke-width:0;font-size:12;font-style:normal;font-weight:400;font-family:Arial;" >- DestSizeCallback(p : void*,  : int)</text>
 <text x="13" y="1454" transform="translate(-8,-75)" style="fill:rgb(0,0,0);stroke-width:0;font-size:12;font-style:normal;font-weight:400;font-family:Arial;" >- FrameOutputCallback(p : void*, video_width : int, video_height : int, video_aspect : double, dest_x : int*, dest_y : int*, dest_width : int*, dest_height : int*, dest_aspect : double*, win_x : int*, win_y : int*)</text>
 <text x="13" y="1471" transform="translate(-8,-75)" style="fill:rgb(0,0,0);stroke-width:0;font-size:12;font-style:normal;font-weight:400;font-family:Arial;" >- initOSD()</text>
 <rect width="414" x="75" y="331" height="144" transform="translate(-8,-75)" style="stroke:rgb(255,0,0);stroke-width:0.9;fill:rgb(255,255,192);" />
 <text x="282" y="346" transform="translate(-8,-75)" style="fill:rgb(0,0,0);stroke-width:0;font-size:12;font-style:normal;font-weight:700;font-family:Arial;" text-anchor="middle" >JAMStreamPlayer</text>
 <line transform="translate(-8,-75)" style="stroke:rgb(255,0,0);stroke-width:0.9;fill:rgb(255,255,192);" y1="348" y2="348" x1="75" x2="488" />
 <line transform="translate(-8,-75)" style="stroke:rgb(255,0,0);stroke-width:0.9;fill:rgb(255,255,192);" y1="348" y2="348" x1="75" x2="488" />
 <text x="80" y="363" transform="translate(-8,-75)" style="fill:rgb(0,0,0);stroke-width:0;font-size:12;font-style:normal;font-weight:400;font-family:Arial;" >+ JAMStreamPlayer(parent : QWidget*, name : const char*)</text>
 <text x="80" y="380" transform="translate(-8,-75)" style="fill:rgb(0,0,0);stroke-width:0;font-size:12;font-style:normal;font-weight:400;font-family:Arial;" >+ ~ JAMStreamPlayer()</text>
 <text x="80" y="397" transform="translate(-8,-75)" style="fill:rgb(0,0,0);stroke-width:0;font-size:12;font-style:normal;font-weight:400;font-family:Arial;" >+ tvMRL(channelid : QString) : QString</text>
 <text x="80" y="414" transform="translate(-8,-75)" style="fill:rgb(0,0,0);stroke-width:0;font-size:12;font-style:normal;font-weight:400;font-family:Arial;" >+ play(mrl : QString)</text>
 <text x="80" y="431" transform="translate(-8,-75)" style="fill:rgb(0,0,0);stroke-width:0;font-size:12;font-style:normal;font-weight:400;font-family:Arial;" >+ stop()</text>
 <text x="80" y="448" transform="translate(-8,-75)" style="fill:rgb(0,0,0);stroke-width:0;font-size:12;font-style:normal;font-weight:400;font-family:Arial;" >+ showOSD(text : QString, duration : uint)</text>
 <text x="80" y="465" transform="translate(-8,-75)" style="fill:rgb(0,0,0);stroke-width:0;font-size:12;font-style:normal;font-weight:400;font-family:Arial;" >+ hideOSD()</text>
 <rect width="436" x="1811" y="544" height="187" transform="translate(-8,-75)" style="stroke:rgb(255,0,0);stroke-width:0.9;fill:rgb(255,255,192);" />
 <text x="2029" y="559" transform="translate(-8,-75)" style="fill:rgb(0,0,0);stroke-width:0;font-size:12;font-style:normal;font-weight:700;font-family:Arial;" text-anchor="middle" >TVChannel</text>
 <line transform="translate(-8,-75)" style="stroke:rgb(255,0,0);stroke-width:0.9;fill:rgb(255,255,192);" y1="561" y2="561" x1="1811" x2="2246" />
 <text x="1816" y="576" transform="translate(-8,-75)" style="fill:rgb(0,0,0);stroke-width:0;font-size:12;font-style:normal;font-weight:400;font-family:Arial;" >- m_id : QString</text>
 <text x="1816" y="593" transform="translate(-8,-75)" style="fill:rgb(0,0,0);stroke-width:0;font-size:12;font-style:normal;font-weight:400;font-family:Arial;" >- m_name : QString</text>
 <text x="1816" y="610" transform="translate(-8,-75)" style="fill:rgb(0,0,0);stroke-width:0;font-size:12;font-style:normal;font-weight:400;font-family:Arial;" >- m_signature : QString</text>
 <text x="1816" y="627" transform="translate(-8,-75)" style="fill:rgb(0,0,0);stroke-width:0;font-size:12;font-style:normal;font-weight:400;font-family:Arial;" >- m_epg : EPGListT</text>
 <line transform="translate(-8,-75)" style="stroke:rgb(255,0,0);stroke-width:0.9;fill:rgb(255,255,192);" y1="629" y2="629" x1="1811" x2="2246" />
 <text x="1816" y="644" transform="translate(-8,-75)" style="fill:rgb(0,0,0);stroke-width:0;font-size:12;font-style:normal;font-weight:400;font-family:Arial;" >+ TVChannel(id : QString, name : QString, signature : QString)</text>
 <text x="1816" y="661" transform="translate(-8,-75)" style="fill:rgb(0,0,0);stroke-width:0;font-size:12;font-style:normal;font-weight:400;font-family:Arial;" >+ getId() : QString</text>
 <text x="1816" y="678" transform="translate(-8,-75)" style="fill:rgb(0,0,0);stroke-width:0;font-size:12;font-style:normal;font-weight:400;font-family:Arial;" >+ getName() : QString</text>
 <text x="1816" y="695" transform="translate(-8,-75)" style="fill:rgb(0,0,0);stroke-width:0;font-size:12;font-style:normal;font-weight:400;font-family:Arial;" >+ getSignature() : QString</text>
 <text x="1816" y="712" transform="translate(-8,-75)" style="fill:rgb(0,0,0);stroke-width:0;font-size:12;font-style:normal;font-weight:400;font-family:Arial;" >+ appendEPGEntry(epgentry : EPGEntry*)</text>
 <text x="1816" y="729" transform="translate(-8,-75)" style="fill:rgb(0,0,0);stroke-width:0;font-size:12;font-style:normal;font-weight:400;font-family:Arial;" >+ getCurrentEPGEntry() : EPGEntry*</text>
 <rect width="332" x="23" y="100" height="85" transform="translate(-8,-75)" style="stroke:rgb(255,0,0);stroke-width:0.9;fill:rgb(255,255,192);" />
 <text x="189" y="115" transform="translate(-8,-75)" style="fill:rgb(0,0,0);stroke-width:0;font-size:12;font-style:normal;font-weight:700;font-family:Arial;" text-anchor="middle" >Menu</text>
 <line transform="translate(-8,-75)" style="stroke:rgb(255,0,0);stroke-width:0.9;fill:rgb(255,255,192);" y1="117" y2="117" x1="23" x2="354" />
 <text x="28" y="132" transform="translate(-8,-75)" style="fill:rgb(0,0,0);stroke-width:0;font-size:12;font-style:normal;font-weight:400;font-family:Arial;" >- m_list : QListView*</text>
 <line transform="translate(-8,-75)" style="stroke:rgb(255,0,0);stroke-width:0.9;fill:rgb(255,255,192);" y1="134" y2="134" x1="23" x2="354" />
 <text x="28" y="149" transform="translate(-8,-75)" style="fill:rgb(0,0,0);stroke-width:0;font-size:12;font-style:normal;font-weight:400;font-family:Arial;" >+ Menu(parent : QWidget*, name : const char*)</text>
 <text x="28" y="166" transform="translate(-8,-75)" style="fill:rgb(0,0,0);stroke-width:0;font-size:12;font-style:normal;font-weight:400;font-family:Arial;" >+ ~ Menu()</text>
 <text x="28" y="183" transform="translate(-8,-75)" style="fill:rgb(0,0,0);stroke-width:0;font-size:12;font-style:normal;font-weight:400;font-family:Arial;" >+ showCurrentProgram(tv : JAMTV*)</text>
 <rect width="782" x="1622" y="871" height="272" transform="translate(-8,-75)" style="stroke:rgb(255,0,0);stroke-width:0.9;fill:rgb(255,255,192);" />
 <text x="2013" y="886" transform="translate(-8,-75)" style="fill:rgb(0,0,0);stroke-width:0;font-size:12;font-style:normal;font-weight:700;font-family:Arial;" text-anchor="middle" >EPGEntry</text>
 <line transform="translate(-8,-75)" style="stroke:rgb(255,0,0);stroke-width:0.9;fill:rgb(255,255,192);" y1="888" y2="888" x1="1622" x2="2403" />
 <text x="1627" y="903" transform="translate(-8,-75)" style="fill:rgb(0,0,0);stroke-width:0;font-size:12;font-style:normal;font-weight:400;font-family:Arial;" >- m_id : QString</text>
 <text x="1627" y="920" transform="translate(-8,-75)" style="fill:rgb(0,0,0);stroke-width:0;font-size:12;font-style:normal;font-weight:400;font-family:Arial;" >- m_start : time_t</text>
 <text x="1627" y="937" transform="translate(-8,-75)" style="fill:rgb(0,0,0);stroke-width:0;font-size:12;font-style:normal;font-weight:400;font-family:Arial;" >- m_duration : time_t</text>
 <text x="1627" y="954" transform="translate(-8,-75)" style="fill:rgb(0,0,0);stroke-width:0;font-size:12;font-style:normal;font-weight:400;font-family:Arial;" >- m_title : QString</text>
 <text x="1627" y="971" transform="translate(-8,-75)" style="fill:rgb(0,0,0);stroke-width:0;font-size:12;font-style:normal;font-weight:400;font-family:Arial;" >- m_shorttext : QString</text>
 <text x="1627" y="988" transform="translate(-8,-75)" style="fill:rgb(0,0,0);stroke-width:0;font-size:12;font-style:normal;font-weight:400;font-family:Arial;" >- m_description : QString</text>
 <line transform="translate(-8,-75)" style="stroke:rgb(255,0,0);stroke-width:0.9;fill:rgb(255,255,192);" y1="990" y2="990" x1="1622" x2="2403" />
 <text x="1627" y="1005" transform="translate(-8,-75)" style="fill:rgb(0,0,0);stroke-width:0;font-size:12;font-style:normal;font-weight:400;font-family:Arial;" >+ EPGEntry(id : QString, start : time_t, duration : time_t, title : QString, shorttext : QString, description : QString)</text>
 <text x="1627" y="1022" transform="translate(-8,-75)" style="fill:rgb(0,0,0);stroke-width:0;font-size:12;font-style:normal;font-weight:400;font-family:Arial;" >+ setTitle(title : QString)</text>
 <text x="1627" y="1039" transform="translate(-8,-75)" style="fill:rgb(0,0,0);stroke-width:0;font-size:12;font-style:normal;font-weight:400;font-family:Arial;" >+ setShortText(shorttext : QString)</text>
 <text x="1627" y="1056" transform="translate(-8,-75)" style="fill:rgb(0,0,0);stroke-width:0;font-size:12;font-style:normal;font-weight:400;font-family:Arial;" >+ setDescription(description : QString)</text>
 <text x="1627" y="1073" transform="translate(-8,-75)" style="fill:rgb(0,0,0);stroke-width:0;font-size:12;font-style:normal;font-weight:400;font-family:Arial;" >+ getStartTime() : time_t</text>
 <text x="1627" y="1090" transform="translate(-8,-75)" style="fill:rgb(0,0,0);stroke-width:0;font-size:12;font-style:normal;font-weight:400;font-family:Arial;" >+ getDurationTime() : time_t</text>
 <text x="1627" y="1107" transform="translate(-8,-75)" style="fill:rgb(0,0,0);stroke-width:0;font-size:12;font-style:normal;font-weight:400;font-family:Arial;" >+ getTitle() : QString</text>
 <text x="1627" y="1124" transform="translate(-8,-75)" style="fill:rgb(0,0,0);stroke-width:0;font-size:12;font-style:normal;font-weight:400;font-family:Arial;" >+ getShortText() : QString</text>
 <text x="1627" y="1141" transform="translate(-8,-75)" style="fill:rgb(0,0,0);stroke-width:0;font-size:12;font-style:normal;font-weight:400;font-family:Arial;" >+ getDescription() : QString</text>
 <rect width="457" x="1060" y="640" height="255" transform="translate(-8,-75)" style="stroke:rgb(255,0,0);stroke-width:0.9;fill:rgb(255,255,192);" />
 <text x="1288" y="655" transform="translate(-8,-75)" style="fill:rgb(0,0,0);stroke-width:0;font-size:12;font-style:normal;font-weight:700;font-family:Arial;" text-anchor="middle" >SVDRPRequest</text>
 <line transform="translate(-8,-75)" style="stroke:rgb(255,0,0);stroke-width:0.9;fill:rgb(255,255,192);" y1="657" y2="657" x1="1060" x2="1516" />
 <text x="1065" y="672" transform="translate(-8,-75)" style="fill:rgb(0,0,0);stroke-width:0;font-size:12;font-style:normal;font-weight:400;font-family:Arial;" >- m_requestMutex : QMutex</text>
 <text x="1065" y="689" transform="translate(-8,-75)" style="fill:rgb(0,0,0);stroke-width:0;font-size:12;font-style:normal;font-weight:400;font-family:Arial;" >- m_svdrp : SVDRP*</text>
 <text x="1065" y="706" transform="translate(-8,-75)" style="fill:rgb(0,0,0);stroke-width:0;font-size:12;font-style:normal;font-weight:400;font-family:Arial;" >- m_request : QString</text>
 <text x="1065" y="723" transform="translate(-8,-75)" style="fill:rgb(0,0,0);stroke-width:0;font-size:12;font-style:normal;font-weight:400;font-family:Arial;" >- m_tv : JAMTV*</text>
 <text x="1065" y="740" transform="translate(-8,-75)" style="fill:rgb(0,0,0);stroke-width:0;font-size:12;font-style:normal;font-weight:400;font-family:Arial;" >- m_socket : QSocketDevice*</text>
 <text x="1065" y="757" transform="translate(-8,-75)" style="fill:rgb(0,0,0);stroke-width:0;font-size:12;font-style:normal;font-weight:400;font-family:Arial;" >- m_reply : QStringList</text>
 <text x="1065" y="774" transform="translate(-8,-75)" style="fill:rgb(0,0,0);stroke-width:0;font-size:12;font-style:normal;font-weight:400;font-family:Arial;" >- m_currentChannel : TVChannel*</text>
 <text x="1065" y="791" transform="translate(-8,-75)" style="fill:rgb(0,0,0);stroke-width:0;font-size:12;font-style:normal;font-weight:400;font-family:Arial;" >- m_currentEPGEntry : EPGEntry*</text>
 <line transform="translate(-8,-75)" style="stroke:rgb(255,0,0);stroke-width:0.9;fill:rgb(255,255,192);" y1="793" y2="793" x1="1060" x2="1516" />
 <text x="1065" y="808" transform="translate(-8,-75)" style="fill:rgb(0,0,0);stroke-width:0;font-size:12;font-style:normal;font-weight:400;font-family:Arial;" >+ SVDRPRequest(svdrp : SVDRP*, request : QString, tv : JAMTV*)</text>
 <text x="1065" y="825" transform="translate(-8,-75)" style="fill:rgb(0,0,0);stroke-width:0;font-size:12;font-style:normal;font-weight:400;font-family:Arial;" >+ ~ SVDRPRequest()</text>
 <text x="1065" y="842" transform="translate(-8,-75)" style="fill:rgb(0,0,0);stroke-width:0;font-size:12;font-style:normal;font-weight:400;font-family:Arial;" >+ run()</text>
 <text x="1065" y="859" transform="translate(-8,-75)" style="fill:rgb(0,0,0);stroke-width:0;font-size:12;font-style:normal;font-weight:400;font-family:Arial;" >+ startRequest()</text>
 <text x="1065" y="876" transform="translate(-8,-75)" style="fill:rgb(0,0,0);stroke-width:0;font-size:12;font-style:normal;font-weight:400;font-family:Arial;" >- writeToSocket(str : const QString&amp;)</text>
 <text x="1065" y="893" transform="translate(-8,-75)" style="fill:rgb(0,0,0);stroke-width:0;font-size:12;font-style:normal;font-weight:400;font-family:Arial;" >- processReply()</text>
 <rect width="444" x="652" y="259" height="289" transform="translate(-8,-75)" style="stroke:rgb(255,0,0);stroke-width:0.9;fill:rgb(255,255,192);" />
 <text x="874" y="274" transform="translate(-8,-75)" style="fill:rgb(0,0,0);stroke-width:0;font-size:12;font-style:normal;font-weight:700;font-family:Arial;" text-anchor="middle" >JAMTV</text>
 <line transform="translate(-8,-75)" style="stroke:rgb(255,0,0);stroke-width:0.9;fill:rgb(255,255,192);" y1="276" y2="276" x1="652" x2="1095" />
 <text x="657" y="291" transform="translate(-8,-75)" style="fill:rgb(0,0,0);stroke-width:0;font-size:12;font-style:normal;font-weight:400;font-family:Arial;" >- m_channelList : ChannelListT</text>
 <text x="657" y="308" transform="translate(-8,-75)" style="fill:rgb(0,0,0);stroke-width:0;font-size:12;font-style:normal;font-weight:400;font-family:Arial;" >- m_currentChannel : int</text>
 <text x="657" y="325" transform="translate(-8,-75)" style="fill:rgb(0,0,0);stroke-width:0;font-size:12;font-style:normal;font-weight:400;font-family:Arial;" >- m_numberChannels : int</text>
 <text x="657" y="342" transform="translate(-8,-75)" style="fill:rgb(0,0,0);stroke-width:0;font-size:12;font-style:normal;font-weight:400;font-family:Arial;" >- m_streamplayer : JAMStreamPlayer*</text>
 <text x="657" y="359" transform="translate(-8,-75)" style="fill:rgb(0,0,0);stroke-width:0;font-size:12;font-style:normal;font-weight:400;font-family:Arial;" >- m_controlVDR : SVDRP*</text>
 <line transform="translate(-8,-75)" style="stroke:rgb(255,0,0);stroke-width:0.9;fill:rgb(255,255,192);" y1="361" y2="361" x1="652" x2="1095" />
 <text x="657" y="376" transform="translate(-8,-75)" style="fill:rgb(0,0,0);stroke-width:0;font-size:12;font-style:normal;font-weight:400;font-family:Arial;" >+ JAMTV(streamplayer : JAMStreamPlayer*)</text>
 <text x="657" y="393" transform="translate(-8,-75)" style="fill:rgb(0,0,0);stroke-width:0;font-size:12;font-style:normal;font-weight:400;font-family:Arial;" >+ ~ JAMTV()</text>
 <text x="657" y="410" transform="translate(-8,-75)" style="fill:rgb(0,0,0);stroke-width:0;font-size:12;font-style:normal;font-weight:400;font-family:Arial;" >+ insertChannel(channelnumber : int, channel : TVChannel*)</text>
 <text x="657" y="427" transform="translate(-8,-75)" style="fill:rgb(0,0,0);stroke-width:0;font-size:12;font-style:normal;font-weight:400;font-family:Arial;" >+ appendChannel(channel : TVChannel*)</text>
 <text x="657" y="444" transform="translate(-8,-75)" style="fill:rgb(0,0,0);stroke-width:0;font-size:12;font-style:normal;font-weight:400;font-family:Arial;" >+ setCurrentChannel(channelnumber : int)</text>
 <text x="657" y="461" transform="translate(-8,-75)" style="fill:rgb(0,0,0);stroke-width:0;font-size:12;font-style:normal;font-weight:400;font-family:Arial;" >+ getChannelId(channelnumber : int) : QString</text>
 <text x="657" y="478" transform="translate(-8,-75)" style="fill:rgb(0,0,0);stroke-width:0;font-size:12;font-style:normal;font-weight:400;font-family:Arial;" >+ getChannelName(channelnumber : int) : QString</text>
 <text x="657" y="495" transform="translate(-8,-75)" style="fill:rgb(0,0,0);stroke-width:0;font-size:12;font-style:normal;font-weight:400;font-family:Arial;" >+ getChannelPointer(channelsignature : QString) : TVChannel*</text>
 <text x="657" y="512" transform="translate(-8,-75)" style="fill:rgb(0,0,0);stroke-width:0;font-size:12;font-style:normal;font-weight:400;font-family:Arial;" >+ getCurrentChannelPointer() : TVChannel*</text>
 <text x="657" y="529" transform="translate(-8,-75)" style="fill:rgb(0,0,0);stroke-width:0;font-size:12;font-style:normal;font-weight:400;font-family:Arial;" >+ getCurrentChannel() : int</text>
 <text x="657" y="546" transform="translate(-8,-75)" style="fill:rgb(0,0,0);stroke-width:0;font-size:12;font-style:normal;font-weight:400;font-family:Arial;" >+ getChannelCount() : int</text>
 <rect width="307" x="1238" y="310" height="187" transform="translate(-8,-75)" style="stroke:rgb(255,0,0);stroke-width:0.9;fill:rgb(255,255,192);" />
 <text x="1391" y="325" transform="translate(-8,-75)" style="fill:rgb(0,0,0);stroke-width:0;font-size:12;font-style:normal;font-weight:700;font-family:Arial;" text-anchor="middle" >SVDRP</text>
 <line transform="translate(-8,-75)" style="stroke:rgb(255,0,0);stroke-width:0.9;fill:rgb(255,255,192);" y1="327" y2="327" x1="1238" x2="1544" />
 <text x="1243" y="342" transform="translate(-8,-75)" style="fill:rgb(0,0,0);stroke-width:0;font-size:12;font-style:normal;font-weight:400;font-family:Arial;" >- m_server : QString</text>
 <text x="1243" y="359" transform="translate(-8,-75)" style="fill:rgb(0,0,0);stroke-width:0;font-size:12;font-style:normal;font-weight:400;font-family:Arial;" >- m_port : Q_UINT16</text>
 <line transform="translate(-8,-75)" style="stroke:rgb(255,0,0);stroke-width:0.9;fill:rgb(255,255,192);" y1="361" y2="361" x1="1238" x2="1544" />
 <text x="1243" y="376" transform="translate(-8,-75)" style="fill:rgb(0,0,0);stroke-width:0;font-size:12;font-style:normal;font-weight:400;font-family:Arial;" >+ SVDRP(server : QString, port : Q_UINT16)</text>
 <text x="1243" y="393" transform="translate(-8,-75)" style="fill:rgb(0,0,0);stroke-width:0;font-size:12;font-style:normal;font-weight:400;font-family:Arial;" >+ ~ SVDRP()</text>
 <text x="1243" y="410" transform="translate(-8,-75)" style="fill:rgb(0,0,0);stroke-width:0;font-size:12;font-style:normal;font-weight:400;font-family:Arial;" >+ server() : QString</text>
 <text x="1243" y="427" transform="translate(-8,-75)" style="fill:rgb(0,0,0);stroke-width:0;font-size:12;font-style:normal;font-weight:400;font-family:Arial;" >+ port() : Q_UINT16</text>
 <text x="1243" y="444" transform="translate(-8,-75)" style="fill:rgb(0,0,0);stroke-width:0;font-size:12;font-style:normal;font-weight:400;font-family:Arial;" >+ getChannels(tv : JAMTV*)</text>
 <text x="1243" y="461" transform="translate(-8,-75)" style="fill:rgb(0,0,0);stroke-width:0;font-size:12;font-style:normal;font-weight:400;font-family:Arial;" >+ getEPG(tv : JAMTV*)</text>
 <text x="1243" y="478" transform="translate(-8,-75)" style="fill:rgb(0,0,0);stroke-width:0;font-size:12;font-style:normal;font-weight:400;font-family:Arial;" >+ getRecordings(tv : JAMTV*)</text>
 <text x="1243" y="495" transform="translate(-8,-75)" style="fill:rgb(0,0,0);stroke-width:0;font-size:12;font-style:normal;font-weight:400;font-family:Arial;" >+ getTimers(tv : JAMTV*)</text>
 <text x="336" y="329" transform="translate(-8,-75)" style="fill:rgb(50,50,50);stroke-width:0;font-size:12;font-style:normal;font-weight:400;font-family:Arial;" text-anchor="middle" >0..1</text>
 <text x="304" y="300" transform="translate(-8,-75)" style="fill:rgb(50,50,50);stroke-width:0;font-size:12;font-style:normal;font-weight:400;font-family:Arial;" text-anchor="middle" >-streamplayer</text>
 <text x="777" y="256" transform="translate(-8,-75)" style="fill:rgb(50,50,50);stroke-width:0;font-size:12;font-style:normal;font-weight:400;font-family:Arial;" text-anchor="middle" >0..1</text>
 <text x="860" y="253" transform="translate(-8,-75)" style="fill:rgb(50,50,50);stroke-width:0;font-size:12;font-style:normal;font-weight:400;font-family:Arial;" text-anchor="middle" >-tv</text>
 <text x="1550" y="1001" transform="translate(-8,-75)" style="fill:rgb(50,50,50);stroke-width:0;font-size:12;font-style:normal;font-weight:400;font-family:Arial;" text-anchor="middle" >-m_currentEPGEntry</text>
 <text x="373" y="136" transform="translate(-8,-75)" style="fill:rgb(50,50,50);stroke-width:0;font-size:12;font-style:normal;font-weight:400;font-family:Arial;" text-anchor="middle" >0..1</text>
 <text x="390" y="161" transform="translate(-8,-75)" style="fill:rgb(50,50,50);stroke-width:0;font-size:12;font-style:normal;font-weight:400;font-family:Arial;" text-anchor="middle" >-m_menu</text>
 <text x="1409" y="516" transform="translate(-8,-75)" style="fill:rgb(50,50,50);stroke-width:0;font-size:12;font-style:normal;font-weight:400;font-family:Arial;" text-anchor="middle" >0..1</text>
 <text x="1224" y="397" transform="translate(-8,-75)" style="fill:rgb(50,50,50);stroke-width:0;font-size:12;font-style:normal;font-weight:400;font-family:Arial;" text-anchor="middle" >0..1</text>
 <text x="1184" y="422" transform="translate(-8,-75)" style="fill:rgb(50,50,50);stroke-width:0;font-size:12;font-style:normal;font-weight:400;font-family:Arial;" text-anchor="middle" >-m_controlVDR</text>
 <text x="897" y="567" transform="translate(-8,-75)" style="fill:rgb(50,50,50);stroke-width:0;font-size:12;font-style:normal;font-weight:400;font-family:Arial;" text-anchor="middle" >-m_tv</text>
 <text x="1735" y="692" transform="translate(-8,-75)" style="fill:rgb(50,50,50);stroke-width:0;font-size:12;font-style:normal;font-weight:400;font-family:Arial;" text-anchor="middle" >-m_currentChannel</text>
 <text x="548" y="422" transform="translate(-8,-75)" style="fill:rgb(50,50,50);stroke-width:0;font-size:12;font-style:normal;font-weight:400;font-family:Arial;" text-anchor="middle" >-m_streamplayer</text>
 <text x="955" y="568" transform="translate(-8,-75)" style="fill:rgb(50,50,50);stroke-width:0;font-size:12;font-style:normal;font-weight:400;font-family:Arial;" text-anchor="middle" >0..1</text>
 <text x="507" y="397" transform="translate(-8,-75)" style="fill:rgb(50,50,50);stroke-width:0;font-size:12;font-style:normal;font-weight:400;font-family:Arial;" text-anchor="middle" >0..1</text>
 <text x="1797" y="631" transform="translate(-8,-75)" style="fill:rgb(50,50,50);stroke-width:0;font-size:12;font-style:normal;font-weight:400;font-family:Arial;" text-anchor="middle" >0..1</text>
 <text x="1355" y="516" transform="translate(-8,-75)" style="fill:rgb(50,50,50);stroke-width:0;font-size:12;font-style:normal;font-weight:400;font-family:Arial;" text-anchor="middle" >-m_svdrp</text>
 <text x="1607" y="944" transform="translate(-8,-75)" style="fill:rgb(50,50,50);stroke-width:0;font-size:12;font-style:normal;font-weight:400;font-family:Arial;" text-anchor="middle" >0..1</text>
</svg>
